# Blender 3.6.1
# www.blender.org
mtllib kart_MR_a.mtl
o polygon1
v 0.105957 0.427978 0.218994
v 0.076660 0.403564 0.226074
v 0.000000 0.463379 0.231445
v 0.000000 0.425537 0.233887
v -0.105957 0.427978 0.218994
v -0.076660 0.403564 0.226074
v -0.092285 0.257812 0.158691
v -0.066895 0.273193 0.180176
v 0.092285 0.257812 0.158691
v 0.066895 0.273193 0.180176
v 0.105957 0.427978 0.218994
v 0.076660 0.403564 0.226074
v 0.000000 0.463379 0.231445
v 0.000000 0.425537 0.233887
v 0.105957 0.427978 0.218994
v 0.076660 0.403564 0.226074
v 0.092285 0.257812 0.158691
v 0.066895 0.273193 0.180176
v -0.092285 0.257812 0.158691
v -0.066895 0.273193 0.180176
v -0.105957 0.427978 0.218994
v -0.076660 0.403564 0.226074
v 0.000000 0.463379 0.231445
v 0.000000 0.425537 0.233887
v 0.227539 0.225586 -0.342529
v 0.255615 0.454102 -0.428711
v 0.139160 0.225586 -0.342529
v 0.111084 0.454102 -0.428711
v 0.183350 0.196289 -0.408691
v 0.183350 0.364014 -0.526123
v 0.227539 0.225586 -0.342529
v 0.255615 0.454102 -0.428711
v -0.255615 0.454102 -0.428711
v -0.227539 0.225586 -0.342529
v -0.111084 0.454102 -0.428711
v -0.139160 0.225586 -0.342529
v -0.183350 0.364014 -0.526123
v -0.183350 0.196289 -0.408691
v -0.255615 0.454102 -0.428711
v -0.227539 0.225586 -0.342529
v -0.132812 0.062500 -0.492432
v 0.132812 0.062500 -0.492432
v -0.132812 0.062500 0.427979
v 0.132812 0.062500 0.427979
v -0.132812 0.187500 0.598633
v 0.132812 0.187500 0.598633
v 0.232422 0.119385 0.655762
v 0.283936 0.074951 0.719971
v -0.232422 0.119385 0.655762
v -0.283936 0.074951 0.719971
v -0.297852 0.170410 0.471436
v -0.397949 0.074951 0.523682
v 0.326172 0.095459 0.379150
v 0.000000 0.067139 0.411621
v 0.000000 0.122070 0.346436
v -0.326172 0.095459 0.379150
v 0.326416 0.210938 -0.063965
v 0.346924 0.074951 0.094727
v 0.216553 0.169189 -0.063965
v 0.134277 0.074951 0.171387
v 0.283936 0.074951 0.719971
v 0.397705 0.074951 0.523682
v 0.232422 0.119385 0.655762
v 0.297852 0.170410 0.471436
v 0.326416 0.210938 -0.063965
v 0.216553 0.169189 -0.063965
v 0.346924 0.074951 0.094727
v 0.134277 0.074951 0.171387
v 0.326172 0.095459 0.379150
v 0.000000 0.122070 0.346436
v 0.000000 0.067139 0.411621
v -0.326172 0.095459 0.379150
v -0.152588 0.119385 -0.471436
v -0.136719 0.271729 -0.582031
v -0.213623 0.074951 -0.512695
v -0.120361 0.221924 -0.616699
v -0.120361 0.221924 -0.616699
v -0.136719 0.271729 -0.582031
v -0.213623 0.074951 -0.512695
v -0.152588 0.119385 -0.471436
v -0.341553 0.074951 0.258789
v -0.299561 0.141113 0.206299
v -0.420410 0.074951 -0.098389
v -0.326416 0.210938 -0.063965
v -0.134277 0.074951 0.171387
v -0.216553 0.169189 -0.063965
v -0.346924 0.074951 0.094727
v -0.326416 0.210938 -0.063965
v 0.120361 0.221924 -0.616699
v 0.213623 0.074951 -0.512695
v 0.136719 0.271729 -0.582031
v 0.152588 0.119385 -0.471436
v 0.326416 0.210938 -0.063965
v 0.299561 0.141113 0.206299
v 0.420410 0.074951 -0.098389
v 0.341553 0.074951 0.258789
v 0.326416 0.210938 -0.063965
v 0.420410 0.074951 -0.098389
v 0.299561 0.141113 0.206299
v 0.341553 0.074951 0.258789
v -0.326416 0.210938 -0.063965
v -0.216553 0.169189 -0.063965
v -0.346924 0.074951 0.094727
v -0.134277 0.074951 0.171387
v -0.341553 0.074951 0.258789
v -0.420410 0.074951 -0.098389
v -0.299561 0.141113 0.206299
v -0.326416 0.210938 -0.063965
v 0.120361 0.221924 -0.616699
v 0.136719 0.271729 -0.582031
v 0.213623 0.074951 -0.512695
v 0.152588 0.119385 -0.471436
v -0.283936 0.074951 0.719971
v -0.232422 0.119385 0.655762
v -0.397949 0.074951 0.523682
v -0.297852 0.170410 0.471436
v -0.152588 0.119385 0.655762
v -0.213623 0.074951 0.655762
v -0.213623 0.074951 -0.512695
v -0.152588 0.119385 -0.471436
v 0.341553 0.074951 0.258789
v -0.341553 0.074951 0.258789
v -0.299561 0.118408 0.154053
v 0.299561 0.118408 0.154053
v -0.120361 0.221924 -0.616699
v 0.120361 0.221924 -0.616699
v 0.136719 0.271729 -0.582031
v -0.136719 0.271729 -0.582031
v -0.283936 0.074951 0.719971
v 0.283936 0.074951 0.719971
v 0.232422 0.119385 0.655762
v -0.232422 0.119385 0.655762
v -0.120361 0.221924 -0.616699
v -0.136719 0.271729 -0.582031
v 0.136719 0.271729 -0.582031
v 0.120361 0.221924 -0.616699
v 0.132812 0.187500 0.598633
v 0.132812 0.353760 0.309815
v -0.132812 0.353760 0.309815
v -0.132812 0.187500 0.598633
v -0.132812 0.353760 0.309815
v 0.132812 0.353760 0.309815
v 0.170898 0.187500 0.215820
v -0.170898 0.187500 0.215820
v 0.341553 0.074951 0.258789
v 0.299561 0.118408 0.154053
v -0.299561 0.118408 0.154053
v -0.341553 0.074951 0.258789
v -0.170898 0.187500 0.215820
v 0.170898 0.187500 0.215820
v 0.170898 0.187500 -0.401611
v -0.170898 0.187500 -0.401611
v -0.170898 0.187500 -0.401611
v 0.170898 0.187500 -0.401611
v 0.132812 0.062500 -0.492432
v -0.132812 0.062500 -0.492432
v -0.152588 0.119385 0.655762
v -0.152588 0.119385 -0.471436
v -0.213623 0.074951 -0.512695
v -0.213623 0.074951 0.655762
v 0.132812 0.062500 0.427979
v 0.132812 0.062500 -0.492432
v 0.170898 0.187500 -0.401611
v 0.170898 0.187500 0.215820
v -0.132812 0.062500 -0.492432
v -0.132812 0.062500 0.427979
v -0.170898 0.187500 0.215820
v -0.170898 0.187500 -0.401611
v 0.152588 0.119385 0.655762
v 0.213623 0.074951 0.655762
v 0.213623 0.074951 -0.512695
v 0.152588 0.119385 -0.471436
v 0.297852 0.170410 0.471436
v 0.397705 0.074951 0.523682
v 0.283936 0.074951 0.719971
v 0.232422 0.119385 0.655762
v -0.120605 0.085449 -0.197266
v 0.120605 0.085449 -0.197266
v 0.120605 0.340820 -0.222656
v -0.120605 0.340820 -0.222656
v -0.120605 0.340820 -0.222656
v 0.120605 0.340820 -0.222656
v 0.120605 0.306885 -0.447754
v -0.120605 0.306885 -0.447754
v -0.120605 0.306885 -0.447754
v 0.120605 0.306885 -0.447754
v 0.120605 0.085449 -0.466797
v -0.120605 0.085449 -0.466797
v 0.120605 0.085449 -0.197266
v 0.120605 0.085449 -0.466797
v 0.120605 0.306885 -0.447754
v 0.120605 0.340820 -0.222656
v -0.120605 0.085449 -0.466797
v -0.120605 0.085449 -0.197266
v -0.120605 0.340820 -0.222656
v -0.120605 0.306885 -0.447754
v 0.152588 0.119385 0.655762
v 0.152588 0.119385 -0.471436
v 0.213623 0.074951 -0.512695
v 0.213623 0.074951 0.655762
v -0.183350 0.108887 -0.323730
v -0.152344 0.500488 -0.505615
v -0.214355 0.514160 -0.478271
v 0.183350 0.108887 -0.323730
v 0.214355 0.514160 -0.478271
v 0.152344 0.500488 -0.505615
v -0.418701 0.157227 -0.272949
v -0.134766 0.128662 -0.294922
v -0.134766 0.177002 -0.242920
v 0.418701 0.157227 -0.272949
v 0.134766 0.177002 -0.242920
v 0.134766 0.128662 -0.294922
v 0.040771 0.368408 0.195557
v 0.000000 0.293701 0.175537
v -0.040771 0.368408 0.195557
v 0.040771 0.368408 0.195557
v -0.040771 0.368408 0.195557
v 0.000000 0.293701 0.175537
v 0.132812 0.062500 0.427979
v 0.170898 0.187500 0.215820
v 0.132812 0.187500 0.598633
v -0.183350 0.108887 -0.323730
v -0.214355 0.514160 -0.478271
v -0.152344 0.500488 -0.505615
v 0.183350 0.108887 -0.323730
v 0.152344 0.500488 -0.505615
v 0.214355 0.514160 -0.478271
v 0.111084 0.454102 -0.428711
v 0.255615 0.454102 -0.428711
v 0.183350 0.364014 -0.526123
v 0.132812 0.187500 0.598633
v 0.170898 0.187500 0.215820
v 0.132812 0.353760 0.309815
v -0.170898 0.187500 0.215820
v -0.132812 0.187500 0.598633
v -0.132812 0.353760 0.309815
v -0.418701 0.157227 -0.272949
v -0.134766 0.177002 -0.242920
v -0.134766 0.128662 -0.294922
v 0.418701 0.157227 -0.272949
v 0.134766 0.128662 -0.294922
v 0.134766 0.177002 -0.242920
v 0.017578 0.347900 0.191895
v -0.017578 0.347900 0.191895
v 0.000000 0.205566 0.453857
v -0.170898 0.187500 0.215820
v -0.132812 0.062500 0.427979
v -0.132812 0.187500 0.598633
v -0.111084 0.454102 -0.428711
v -0.183350 0.364014 -0.526123
v -0.255615 0.454102 -0.428711
vn -0.1505 -0.1045 -0.9831
vn -0.1450 -0.0974 -0.9846
vn 0.0049 -0.0700 -0.9975
vn 0.0090 -0.0693 -0.9976
vn 0.1361 -0.1026 -0.9854
vn 0.1354 -0.1227 -0.9832
vn 0.4712 0.3280 -0.8188
vn 0.4729 0.3275 -0.8180
vn 0.4866 0.3231 -0.8117
vn 0.4904 0.3219 -0.8099
vn -0.0000 0.8131 -0.5821
vn -0.4877 0.3262 -0.8098
vn -0.4860 0.3260 -0.8109
vn -0.4726 0.3247 -0.8192
vn -0.4688 0.3244 -0.8216
vn 0.1375 0.0638 0.9885
vn 0.1372 0.0735 0.9878
vn 0.1361 0.1026 0.9854
vn 0.1354 0.1227 0.9832
vn 0.4712 -0.3280 0.8188
vn 0.4729 -0.3275 0.8180
vn 0.4866 -0.3231 0.8117
vn 0.4904 -0.3219 0.8099
vn -0.0000 -0.8131 0.5821
vn -0.4877 -0.3262 0.8098
vn -0.4860 -0.3260 0.8109
vn -0.4726 -0.3247 0.8192
vn -0.4688 -0.3244 0.8216
vn -0.1505 0.1045 0.9831
vn -0.1450 0.0974 0.9846
vn -0.1278 0.0750 0.9890
vn -0.1193 0.0639 0.9908
vn -0.0000 0.3529 0.9357
vn -0.8514 -0.2734 -0.4476
vn -0.8699 -0.2756 -0.4091
vn -0.8603 -0.2745 -0.4297
vn -0.8763 -0.2763 -0.3946
vn 0.8490 -0.3031 -0.4328
vn 0.8696 -0.2703 -0.4131
vn 0.8592 -0.2872 -0.4234
vn 0.8750 -0.2612 -0.4076
vn 0.8490 -0.3031 -0.4329
vn -0.0000 -1.0000 -0.0000
vn -0.0000 -0.8067 0.5909
vn -0.0000 -0.8223 -0.5691
vn 0.1616 -0.8674 -0.4706
vn 0.2492 -0.8538 -0.4571
vn 0.5075 -0.7944 -0.3336
vn 0.5586 -0.7633 -0.3245
vn 0.0022 -0.7647 -0.6444
vn -0.0000 -0.7647 -0.6444
vn -0.0022 -0.7647 -0.6444
vn 0.2711 -0.7133 -0.6463
vn -0.0232 -0.8678 -0.4963
vn 0.0869 -0.8236 -0.5605
vn -0.1485 -0.8990 -0.4119
vn 0.4334 0.8655 0.2512
vn 0.4975 0.7909 0.3564
vn 0.4635 0.8340 0.2994
vn 0.5189 0.7585 0.3942
vn -0.2711 0.7133 0.6463
vn -0.0869 0.8236 0.5605
vn 0.0232 0.8678 0.4963
vn 0.1485 0.8990 0.4119
vn -0.0022 0.7647 0.6444
vn -0.0000 0.7647 0.6444
vn 0.0022 0.7647 0.6444
vn -0.7026 0.4645 0.5391
vn -0.8184 0.1220 -0.5615
vn 0.8184 -0.1220 0.5615
vn 0.7026 -0.4645 -0.5391
vn -0.7659 0.6203 0.1691
vn -0.7813 0.5976 0.1801
vn -0.8164 0.5393 0.2067
vn -0.8279 0.5176 0.2160
vn -0.1485 0.8990 0.4119
vn 0.0869 0.8236 0.5605
vn -0.0232 0.8678 0.4963
vn 0.2711 0.7133 0.6463
vn -0.8184 -0.1220 0.5615
vn -0.7026 -0.4645 -0.5391
vn 0.8279 0.5176 0.2160
vn 0.7813 0.5976 0.1801
vn 0.8164 0.5393 0.2067
vn 0.7659 0.6203 0.1691
vn -0.8279 -0.5176 -0.2160
vn -0.8164 -0.5393 -0.2067
vn -0.7813 -0.5976 -0.1801
vn -0.7659 -0.6203 -0.1691
vn -0.2711 -0.7133 -0.6463
vn -0.0869 -0.8236 -0.5605
vn 0.0232 -0.8678 -0.4963
vn 0.1485 -0.8990 -0.4119
vn 0.7659 -0.6203 -0.1691
vn 0.8164 -0.5393 -0.2067
vn 0.7813 -0.5976 -0.1801
vn 0.8279 -0.5176 -0.2160
vn 0.8184 0.1220 -0.5615
vn 0.7026 0.4645 0.5391
vn -0.4331 0.8656 0.2515
vn -0.4630 0.8342 0.2996
vn -0.4968 0.7913 0.3564
vn -0.5182 0.7591 0.3941
vn 0.5886 -0.8085 -0.0000
vn -0.0000 -0.9236 -0.3832
vn -0.0000 -0.5713 0.8207
vn -0.0000 0.8223 0.5691
vn -0.0000 0.5713 -0.8207
vn -0.0000 0.8667 0.4989
vn -0.0000 0.4921 -0.8705
vn -0.0000 0.9236 0.3832
vn -0.0000 1.0000 -0.0000
vn -0.0000 0.5878 -0.8090
vn -0.5886 0.8085 -0.0000
vn 0.9566 -0.2915 -0.0000
vn -0.9566 -0.2915 -0.0000
vn 0.5886 0.8085 -0.0000
vn -0.5082 -0.7941 -0.3334
vn -0.5595 -0.7627 -0.3243
vn -0.4331 -0.8330 -0.3442
vn -0.3156 -0.8797 -0.3556
vn -0.0000 0.0989 0.9951
vn -0.0000 0.9888 -0.1491
vn -0.0000 0.0857 -0.9963
vn 1.0000 -0.0000 -0.0000
vn -1.0000 -0.0000 -0.0000
vn -0.5886 -0.8085 -0.0000
vn 0.4415 0.3490 0.8266
vn -0.4415 0.3490 0.8266
vn -0.0210 -0.7323 0.6807
vn 0.0210 -0.7323 0.6807
vn -0.0000 0.2588 -0.9659
vn -0.0000 -0.2588 0.9659
vn 0.9861 -0.1339 0.0981
vn -0.4415 -0.3490 -0.8266
vn 0.4415 -0.3490 -0.8266
vn -0.0000 0.7342 -0.6790
vn 0.9807 0.1695 0.0976
vn -0.9807 0.1695 0.0976
vn 0.0210 0.7323 -0.6807
vn -0.0210 0.7323 -0.6807
vn -0.0000 0.8787 0.4774
vn -0.9861 -0.1339 0.0981
vt 0.679688 -0.294922
vt 0.634766 -0.294922
vt 0.679688 -0.460938
vt 0.634766 -0.460938
vt 0.179688 -0.994141
vt 0.179688 -0.630859
vt 0.005859 -0.994141
vt 0.005859 -0.630859
vt 0.005859 -0.074219
vt 0.185547 -0.074219
vt 0.005859 -0.494141
vt 0.185547 -0.494141
vt 0.005859 -0.615234
vt 0.185547 -0.615234
vt 0.994141 -0.070312
vt 0.994141 -0.208984
vt 0.814453 -0.070312
vt 0.814453 -0.208984
vt 0.765625 -0.205078
vt 0.289062 -0.205078
vt 0.289062 -0.273438
vt 0.990234 -0.117188
vt 0.990234 -0.244141
vt 0.828125 -0.072266
vt 0.820312 -0.244141
vt 0.005859 -0.009766
vt 0.994141 -0.009766
vt 0.005859 -0.054688
vt 0.994141 -0.054688
vt 0.816406 -0.320312
vt 0.816406 -0.285156
vt 0.994141 -0.285156
vt 0.994141 -0.320312
vt 0.994141 -0.238281
vt 0.814453 -0.238281
vt 0.814453 -0.082031
vt 0.994141 -0.082031
vt 0.009766 -0.050781
vt 0.990234 -0.050781
vt 0.990234 -0.009766
vt 0.009766 -0.009766
vt 0.984375 -0.984375
vt 0.875000 -0.285156
vt 0.035156 -0.070312
vt 0.154297 -0.070312
vt 0.154297 -0.484375
vt 0.035156 -0.484375
vt 0.019531 -0.455078
vt 0.164062 -0.455078
vt 0.164062 -0.095703
vt 0.019531 -0.095703
vt 0.994141 -0.150391
vt 0.814453 -0.150391
vt 0.912109 -0.304688
vt 0.990234 -0.304688
vt 0.990234 -0.285156
vt 0.912109 -0.285156
vt 0.195312 -0.720703
vt 0.804688 -0.720703
vt 0.804688 -0.554688
vt 0.195312 -0.554688
vt 0.195312 -0.070312
vt 0.804688 -0.070312
vt 0.804688 -0.460938
vt 0.195312 -0.460938
vt 0.195312 -0.996094
vt 0.804688 -0.996094
vt 0.804688 -0.574219
vt 0.195312 -0.574219
vt 0.230469 -0.294922
vt 0.794922 -0.294922
vt 0.603516 -0.070312
vt 0.230469 -0.070312
vt 0.093750 -0.384766
vt 0.033203 -0.730469
vt 0.154297 -0.730469
vt 0.544922 -0.095703
vt 0.449219 -0.179688
vt 0.363281 -0.095703
vt 0.960938 -0.939453
vt 0.962891 -0.326172
vt 0.820312 -0.939453
vt 0.005859 -0.679688
vt 0.185547 -0.679688
vt 0.091797 -0.630859
vt 0.984375 -0.285156
vt 0.710938 -0.070312
vt 0.789062 -0.070312
vt 0.750000 -0.535156
s 1
usemtl kart_body
f 1/1/1 2/2/2 3/1/3
f 2/2/2 4/2/4 3/1/3
f 3/1/3 4/2/4 5/1/5
f 4/2/4 6/2/6 5/1/5
f 5/1/7 6/2/8 7/3/9
f 6/2/8 8/4/10 7/3/9
f 7/3/11 8/4/11 9/3/11
f 8/4/11 10/4/11 9/3/11
f 9/3/12 10/4/13 11/1/14
f 10/4/13 12/2/15 11/1/14
f 13/1/16 14/2/17 15/1/18
f 14/2/17 16/2/19 15/1/18
f 15/1/20 16/2/21 17/3/22
f 16/2/21 18/4/23 17/3/22
f 17/3/24 18/4/24 19/3/24
f 18/4/24 20/4/24 19/3/24
f 19/3/25 20/4/26 21/1/27
f 20/4/26 22/2/28 21/1/27
f 21/1/29 22/2/30 23/1/31
f 22/2/30 24/2/32 23/1/31
f 25/5/33 26/6/33 27/7/33
f 26/6/33 28/8/33 27/7/33
f 27/7/34 28/8/35 29/5/36
f 28/8/35 30/6/37 29/5/36
f 29/5/38 30/6/39 31/7/40
f 30/6/39 32/8/41 31/7/40
f 33/6/33 34/5/33 35/8/33
f 34/5/33 36/7/33 35/8/33
f 35/8/41 36/7/40 37/6/39
f 36/7/40 38/5/42 37/6/39
f 37/6/37 38/5/36 39/8/35
f 38/5/36 40/7/34 39/8/35
f 41/9/43 42/10/43 43/11/43
f 42/10/43 44/12/43 43/11/43
f 43/11/44 44/12/44 45/13/44
f 44/12/44 46/14/44 45/13/44
f 47/15/45 48/16/45 49/17/46
f 48/16/45 50/18/47 49/17/46
f 49/17/46 50/18/47 51/15/48
f 50/18/47 52/16/49 51/15/48
f 53/19/50 54/20/51 55/21/51
f 54/20/51 56/19/52 55/21/51
f 57/22/53 58/23/54 59/24/55
f 58/23/54 60/25/56 59/24/55
f 61/18/57 62/16/58 63/17/59
f 62/16/58 64/15/60 63/17/59
f 65/22/61 66/24/62 67/23/63
f 66/24/62 68/25/64 67/23/63
f 69/19/65 70/21/66 71/20/66
f 70/21/66 72/19/67 71/20/66
f 73/26/68 74/27/68 75/28/68
f 74/27/69 76/29/69 75/28/69
f 77/29/70 78/27/70 79/28/70
f 78/27/71 80/26/71 79/28/71
f 81/18/72 82/17/73 83/16/74
f 82/17/73 84/15/75 83/16/74
f 85/25/76 86/24/77 87/23/78
f 86/24/77 88/22/79 87/23/78
f 89/29/80 90/28/80 91/27/80
f 90/28/81 92/26/81 91/27/81
f 93/15/82 94/17/83 95/16/84
f 94/17/83 96/18/85 95/16/84
f 97/15/86 98/16/87 99/17/88
f 98/16/87 100/18/89 99/17/88
f 101/22/90 102/24/91 103/23/92
f 102/24/91 104/25/93 103/23/92
f 105/18/94 106/16/95 107/17/96
f 106/16/95 108/15/97 107/17/96
f 109/29/98 110/27/98 111/28/98
f 110/27/99 112/26/99 111/28/99
f 113/18/100 114/17/101 115/16/102
f 114/17/101 116/15/103 115/16/102
f 117/30/104 118/31/104 119/32/104
f 119/32/104 120/33/104 117/30/104
f 121/34/105 122/35/105 123/36/105
f 123/36/105 124/37/105 121/34/105
f 125/38/106 126/39/106 127/40/106
f 127/40/106 128/41/106 125/38/106
f 129/18/107 130/16/107 131/15/107
f 131/15/107 132/17/107 129/18/107
f 133/38/108 134/41/108 135/40/108
f 135/40/108 136/39/108 133/38/108
f 137/42/109 138/43/109 139/43/109
f 139/43/109 140/42/109 137/42/109
f 141/44/110 142/45/110 143/46/110
f 143/46/110 144/47/110 141/44/110
f 145/34/111 146/37/111 147/36/111
f 147/36/111 148/35/111 145/34/111
f 149/48/112 150/49/112 151/50/112
f 151/50/112 152/51/112 149/48/112
f 153/17/113 154/15/113 155/52/113
f 155/52/113 156/53/113 153/17/113
f 157/30/114 158/33/114 159/32/114
f 159/32/114 160/31/114 157/30/114
f 161/54/115 162/55/115 163/56/115
f 163/56/115 164/57/115 161/54/115
f 165/55/116 166/54/116 167/57/116
f 167/57/116 168/56/116 165/55/116
f 169/30/117 170/31/117 171/32/117
f 171/32/117 172/33/117 169/30/117
f 173/15/118 174/16/119 175/18/120
f 175/18/120 176/17/121 173/15/118
f 177/58/122 178/59/122 179/60/122
f 179/60/122 180/61/122 177/58/122
f 181/62/123 182/63/123 183/64/123
f 183/64/123 184/65/123 181/62/123
f 185/66/124 186/67/124 187/68/124
f 187/68/124 188/69/124 185/66/124
f 189/70/125 190/71/125 191/72/125
f 191/72/125 192/73/125 189/70/125
f 193/71/126 194/70/126 195/73/126
f 195/73/126 196/72/126 193/71/126
f 197/30/127 198/33/127 199/32/127
f 199/32/127 200/31/127 197/30/127
f 201/74/128 202/75/128 203/76/128
f 204/74/129 205/76/129 206/75/129
f 207/19/130 208/21/130 209/20/130
f 210/19/131 211/20/131 212/21/131
f 213/77/132 214/78/132 215/79/132
f 216/77/133 217/79/133 218/78/133
f 219/80/134 220/81/134 221/82/134
f 222/74/135 223/76/135 224/75/135
f 225/74/136 226/75/136 227/76/136
f 228/83/137 229/84/137 230/85/137
f 231/42/138 232/86/138 233/43/138
f 234/86/139 235/42/139 236/43/139
f 237/19/140 238/20/140 239/21/140
f 240/19/141 241/21/141 242/20/141
f 243/87/142 244/88/142 245/89/142
f 246/81/143 247/80/143 248/82/143
f 249/83/137 250/85/137 251/84/137
o polygon0
v -0.435303 0.257813 -0.162842
v -0.252197 0.323730 -0.270996
v -0.435303 0.257813 -0.378906
v -0.252197 0.149658 -0.444824
v -0.435303 0.041748 -0.378906
v -0.252197 -0.024170 -0.270996
v -0.252197 0.323730 -0.270996
v -0.435303 0.257813 -0.162842
v -0.252197 0.149658 -0.096924
v -0.435303 0.041748 -0.162842
v -0.252197 -0.024170 -0.270996
v -0.435303 0.041748 -0.378906
v 0.252197 -0.024170 -0.270996
v 0.252197 0.149658 -0.444824
v 0.435303 0.041748 -0.378906
v 0.435303 0.257813 -0.378906
v 0.435303 0.257813 -0.162842
v 0.435303 0.257813 -0.378906
v 0.252197 0.323730 -0.270996
v 0.252197 0.149658 -0.444824
v 0.252197 0.149658 -0.096924
v 0.252197 -0.024170 -0.270996
v 0.435303 0.041748 -0.162842
v 0.435303 0.041748 -0.378906
v 0.252197 0.323730 -0.270996
v 0.252197 0.149658 -0.096924
v 0.435303 0.257813 -0.162842
v 0.435303 0.041748 -0.162842
v -0.435303 0.041748 -0.378906
v -0.435303 0.041748 -0.162842
v -0.435303 0.257813 -0.162842
v -0.435303 0.257813 -0.378906
v -0.252197 0.149658 -0.444824
v -0.252197 0.323730 -0.270996
v -0.252197 0.149658 -0.096924
v -0.252197 -0.024170 -0.270996
v 0.435303 0.041748 -0.378906
v 0.435303 0.257813 -0.378906
v 0.435303 0.257813 -0.162842
v 0.435303 0.041748 -0.162842
v 0.252197 0.149658 -0.444824
v 0.252197 -0.024170 -0.270996
v 0.252197 0.149658 -0.096924
v 0.252197 0.323730 -0.270996
vn -0.3387 0.9409 -0.0000
vn 0.1605 0.6974 -0.6984
vn -0.3387 -0.0000 -0.9409
vn 0.1601 -0.6980 -0.6980
vn 0.1610 0.6979 0.6979
vn -0.3387 -0.0000 0.9409
vn 0.1605 -0.6984 0.6974
vn -0.3387 -0.9409 -0.0000
vn -0.1601 -0.6980 -0.6980
vn 0.3387 -0.0000 -0.9409
vn 0.3387 0.9409 -0.0000
vn -0.1605 0.6974 -0.6984
vn -0.1605 -0.6984 0.6974
vn 0.3387 -0.9409 -0.0000
vn -0.1610 0.6979 0.6979
vn 0.3387 -0.0000 0.9409
vn -1.0000 -0.0000 -0.0000
vn 1.0000 -0.0000 -0.0000
vt 2.968750 -0.021484
vt 2.767578 -0.369141
vt 2.968750 -0.767578
vt 2.767578 -1.232422
vt 2.968750 -1.609375
vt 2.767578 -1.984375
vt 3.013672 -0.023438
vt 3.236328 -0.347656
vt 3.013672 -0.808594
vt 3.236328 -1.152344
vt 3.013672 -1.548828
vt 3.236328 -1.974609
vt 2.271484 -0.964844
vt 2.271484 -0.037109
vt 2.724609 -0.037109
vt 2.724609 -0.964844
s 0
usemtl kart_tire
f 252/90/144 253/91/144 254/92/144
f 253/91/145 255/93/145 254/92/145
f 254/92/146 255/93/146 256/94/146
f 255/93/147 257/95/147 256/94/147
f 258/96/148 259/97/148 260/98/148
f 259/97/149 261/99/149 260/98/149
f 260/98/150 261/99/150 262/100/150
f 261/99/151 263/101/151 262/100/151
f 264/95/152 265/93/152 266/94/152
f 265/93/153 267/92/153 266/94/153
f 268/90/154 269/92/154 270/91/154
f 269/92/155 271/93/155 270/91/155
f 272/98/156 273/100/156 274/99/156
f 273/100/157 275/101/157 274/99/157
f 276/96/158 277/98/158 278/97/158
f 277/98/159 279/99/159 278/97/159
f 280/102/160 281/103/160 282/104/160
f 282/104/160 283/105/160 280/102/160
f 284/102/161 285/103/161 286/104/161
f 286/104/161 287/105/161 284/102/161
f 288/102/161 289/105/161 290/104/161
f 290/104/161 291/103/161 288/102/161
f 292/102/160 293/105/160 294/104/160
f 294/104/160 295/103/160 292/102/160
o polygon2
v -0.110107 0.226318 0.552734
v 0.110107 0.226318 0.552734
v 0.110107 0.339844 0.355713
v -0.110107 0.339844 0.355713
vn -0.0000 0.8665 0.4993
vt 0.000000 -1.000000
vt 1.000000 -1.000000
vt 1.000000 0.000000
vt 0.000000 0.000000
s 0
usemtl kart_emblem
f 296/106/162 297/107/162 298/108/162
f 299/109/162 296/106/162 298/108/162
o polygon0.001
v 0.233398 0.019287 0.299561
v 0.349121 0.000000 0.379150
v 0.233398 0.019287 0.458496
v 0.349121 0.000000 0.379150
v 0.233398 0.019287 0.299561
v 0.349121 0.098633 0.280518
v 0.233398 0.177978 0.299561
v 0.233398 0.019287 0.299561
v 0.233398 0.019287 0.458496
v 0.233398 0.177978 0.458496
v 0.233398 0.177978 0.299561
v 0.349121 0.000000 0.379150
v 0.233398 0.019287 0.458496
v 0.349121 0.098633 0.477783
v 0.233398 0.177978 0.458496
v 0.349121 0.197266 0.379150
v 0.349121 0.098633 0.280518
v 0.233398 0.177978 0.299561
v 0.349121 0.197266 0.379150
v 0.233398 0.177978 0.458496
v -0.233398 0.177978 0.299561
v -0.233398 0.019287 0.299561
v -0.349121 0.098633 0.280518
v -0.349121 0.000000 0.379150
v -0.233398 0.019287 0.458496
v -0.233398 0.177978 0.458496
v -0.349121 0.098633 0.477783
v -0.349121 0.197266 0.379150
v -0.233398 0.019287 0.299561
v -0.233398 0.019287 0.458496
v -0.349121 0.000000 0.379150
v -0.349121 0.098633 0.477783
v -0.233398 0.177978 0.458496
v -0.233398 0.177978 0.299561
v -0.349121 0.197266 0.379150
v -0.349121 0.098633 0.280518
v 0.349121 0.000000 0.379150
v 0.349121 0.098633 0.280518
v 0.349121 0.197266 0.379150
v 0.349121 0.098633 0.477783
v -0.349121 0.000000 0.379150
v -0.349121 0.098633 0.477783
v -0.349121 0.197266 0.379150
v -0.349121 0.098633 0.280518
v -0.233398 0.019287 0.299561
v -0.233398 0.177978 0.299561
v -0.233398 0.177978 0.458496
v -0.233398 0.019287 0.458496
vn -0.1644 -0.9864 -0.0000
vn 0.3457 -0.6635 -0.6635
vn -0.1624 -0.0000 -0.9867
vn -1.0000 -0.0000 -0.0000
vn 0.3445 -0.6638 0.6638
vn -0.1644 -0.0000 0.9864
vn 0.3445 0.6638 0.6638
vn 0.3457 0.6635 -0.6635
vn -0.1644 0.9864 -0.0000
vn 0.1624 -0.0000 -0.9867
vn -0.3457 -0.6635 -0.6635
vn 0.1644 -0.0000 0.9864
vn -0.3445 0.6638 0.6638
vn 0.1644 -0.9864 -0.0000
vn -0.3445 -0.6638 0.6638
vn 0.1644 0.9864 -0.0000
vn -0.3457 0.6635 -0.6635
vn 1.0000 -0.0000 -0.0000
vt -0.990234 -1.945312
vt -0.773438 -1.548828
vt -0.990234 -1.203125
vt 2.001953 -1.970703
vt 1.748047 -1.615234
vt 2.001953 -1.261719
vt 1.748047 -0.859375
vt 1.267578 -0.949219
vt 1.724609 -0.949219
vt 1.724609 -0.054688
vt 1.267578 -0.054688
vt -0.773438 -0.779297
vt -0.990234 -0.392578
vt -0.773438 -0.054688
vt 2.001953 -0.437500
vt 1.748047 -0.039062
s 0
usemtl kart_tire
f 300/110/163 301/111/163 302/112/163
f 303/113/164 304/114/164 305/115/164
f 304/114/165 306/116/165 305/115/165
f 307/117/166 308/118/166 309/119/166
f 309/119/166 310/120/166 307/117/166
f 311/111/167 313/121/167 312/112/167
f 312/112/168 313/121/168 314/122/168
f 313/121/169 315/123/169 314/122/169
f 316/115/170 317/116/170 318/124/170
f 317/116/171 319/125/171 318/124/171
f 320/116/172 321/114/172 322/115/172
f 321/114/173 323/113/173 322/115/173
f 324/112/174 325/122/174 326/121/174
f 325/122/175 327/123/175 326/121/175
f 328/110/176 329/112/176 330/111/176
f 329/112/177 331/121/177 330/111/177
f 332/125/178 333/116/178 334/124/178
f 333/116/179 335/115/179 334/124/179
f 336/117/180 337/118/180 338/119/180
f 338/119/180 339/120/180 336/117/180
f 340/117/166 341/120/166 342/119/166
f 342/119/166 343/118/166 340/117/166
f 344/117/180 345/120/180 346/119/180
f 346/119/180 347/118/180 344/117/180
